<svg width="128" height="128" viewBox="0 0 128 128" fill="none" xmlns="http://www.w3.org/2000/svg">
<path fill-rule="evenodd" clip-rule="evenodd" d="M81.1249 81.125V59.2224H0V81.125H81.1249ZM0 50.7043H81.1249V30.0156H0V50.7043ZM0 21.4975V-0.000457764H81.1249V21.4975H0Z" fill="#325930"/>
<path d="M61.9588 99.7324L33.8824 127.574L34.279 127.967L127.603 127.967L128 127.574L99.9235 99.7324L61.9588 99.7324Z" fill="#325930"/>
<rect width="61.5132" height="61.5132" transform="matrix(0.70683 0.707383 -0.70683 0.707383 80.9412 33.8828)" fill="#74844C"/>
<rect x="61.2421" y="72.1748" width="39.3981" height="28.4541" fill="#325930"/>
<path fill-rule="evenodd" clip-rule="evenodd" d="M120.449 80.4383L80.4487 40.4385L40.4487 80.4383L80.4487 120.438L120.449 80.4383ZM62.0957 99.5756L62.2544 99.7329L99.5842 99.7329L99.7428 99.5756L80.9193 80.9094L62.0957 99.5756Z" fill="#74844C"/>
</svg>
