<svg width="128" height="128" viewBox="0 0 128 128" fill="none" xmlns="http://www.w3.org/2000/svg">
<path fill-rule="evenodd" clip-rule="evenodd" d="M63.6814 0.000976562C70.3793 0.000976562 76.3543 9.28588 80.2543 23.7993C75.107 26.7941 69.6186 30.5883 64.0235 35.0649L64.0235 63.2703H63.1215L43.4914 43.6403C46.3075 18.2833 54.2828 0.000976562 63.6814 0.000976562ZM63.4347 63.5835L63.1227 63.2715H64.0237V64.172L63.4349 63.5832L63.4347 63.5835Z" fill="url(#paint0_radial_272_384)"/>
<path fill-rule="evenodd" clip-rule="evenodd" d="M18.5195 18.9714C23.2558 14.2351 34.0468 16.5759 47.0677 24.0813C45.5455 29.8389 44.3475 36.4029 43.5565 43.5251L63.5 63.4685L63.5002 63.4683L64.1384 64.1065L63.3051 64.1065L63.3051 64.1077L35.1024 64.1077C19.1623 44.1855 11.8734 25.6175 18.5195 18.9714Z" fill="#74844C"/>
<path fill-rule="evenodd" clip-rule="evenodd" d="M0 64.3216C0 57.6238 9.28472 51.6488 23.798 47.7488C26.7928 52.8968 30.5874 58.3858 35.0646 63.9818L63.2696 63.9818V63.9809H64.1709L63.5824 64.5694L63.5826 64.5697L43.6406 84.5117C18.2829 81.6958 0 73.7204 0 64.3216Z" fill="url(#paint1_radial_272_384)"/>
<path fill-rule="evenodd" clip-rule="evenodd" d="M18.9708 109.483C14.2345 104.747 16.5754 93.9556 24.081 80.9344C29.839 82.4567 36.4036 83.6547 43.5263 84.4456L63.4673 64.5047L64.1046 65.142L64.1046 92.9022C44.1834 108.841 25.6166 116.129 18.9708 109.483ZM64.1046 64.6978V65.141L63.4669 64.5033L64.1043 63.8659L64.1043 64.6966L92.3788 64.6966L92.3778 64.6978L64.1046 64.6978Z" fill="#74844C"/>
<path fill-rule="evenodd" clip-rule="evenodd" d="M64.3185 128.001C57.6206 128.001 51.6456 118.716 47.7456 104.203C52.8929 101.208 58.3812 97.4136 63.9764 92.937L63.9764 64.7317H64.8784L84.5085 84.3617C81.6924 109.719 73.7172 128.001 64.3185 128.001ZM64.5653 64.4186L64.8772 64.7305H63.9761V63.8297L64.5652 64.4187L64.5653 64.4186Z" fill="url(#paint2_radial_272_384)"/>
<path fill-rule="evenodd" clip-rule="evenodd" d="M109.481 109.031C104.744 113.767 93.9533 111.426 80.9324 103.921C82.4546 98.1632 83.6526 91.5992 84.4436 84.477L64.5001 64.5335L64.5 64.5337L63.8618 63.8955L64.6951 63.8955V63.8943H92.8976C108.838 83.8165 116.127 102.385 109.481 109.031Z" fill="#74844C"/>
<path fill-rule="evenodd" clip-rule="evenodd" d="M128 63.6803C128 70.3782 118.715 76.3531 104.202 80.2531C101.207 75.1052 97.4127 69.6161 92.9355 64.0202L64.7304 64.0202V64.0211H63.8291L64.4176 63.4326L64.4173 63.4323L84.3593 43.4902C109.717 46.3061 128 54.2815 128 63.6803Z" fill="url(#paint3_radial_272_384)"/>
<path fill-rule="evenodd" clip-rule="evenodd" d="M109.029 18.5218C113.765 23.2583 111.424 34.0499 103.918 47.0714C98.1606 45.5493 91.5966 44.3514 84.4745 43.5605L64.5327 63.5023L64.5329 63.5027L63.8955 64.1401L63.8955 63.3083L35.6209 63.3083L35.6219 63.3071L63.8952 63.3071L63.8952 35.1027C83.8164 19.1641 102.383 11.876 109.029 18.5218Z" fill="#74844C"/>
<circle cx="63.8287" cy="63.831" r="21.2763" fill="#325930"/>
<defs>
<radialGradient id="paint0_radial_272_384" cx="0" cy="0" r="1" gradientUnits="userSpaceOnUse" gradientTransform="translate(84.9573 127.658) rotate(-108.435) scale(134.563 44.854)">
<stop offset="0.8" stop-color="#325930"/>
<stop offset="1" stop-color="#F2D680" stop-opacity="0"/>
</radialGradient>
<radialGradient id="paint1_radial_272_384" cx="0" cy="0" r="1" gradientUnits="userSpaceOnUse" gradientTransform="translate(127.657 43.0458) rotate(161.565) scale(134.562 44.854)">
<stop offset="0.8" stop-color="#325930"/>
<stop offset="1" stop-color="#F2D680" stop-opacity="0"/>
</radialGradient>
<radialGradient id="paint2_radial_272_384" cx="0" cy="0" r="1" gradientUnits="userSpaceOnUse" gradientTransform="translate(43.0424 0.342968) rotate(71.5652) scale(134.563 44.8542)">
<stop offset="0.8" stop-color="#325930"/>
<stop offset="1" stop-color="#F2D680" stop-opacity="0"/>
</radialGradient>
<radialGradient id="paint3_radial_272_384" cx="0" cy="0" r="1" gradientUnits="userSpaceOnUse" gradientTransform="translate(0.342834 84.9561) rotate(-18.4349) scale(134.562 44.854)">
<stop offset="0.8" stop-color="#325930"/>
<stop offset="1" stop-color="#F2D680" stop-opacity="0"/>
</radialGradient>
</defs>
</svg>
